<svg width="159" height="107" viewBox="0 0 159 107" fill="none" xmlns="http://www.w3.org/2000/svg">
<path d="M45.8201 57.2482C45.868 59.8516 45.8947 64.5415 46.2404 69.0521C46.561 73.5816 47.5003 79.8092 48.174 81.7861C50.3307 87.4776 59.1263 85.8469 63.0876 84.1923C61.6012 79.6782 60.0992 71.3586 59.4979 64.7837C58.9214 58.2055 58.7795 51.494 58.7181 46.5242C58.6727 45.0593 58.5437 43.7567 58.3301 42.5729C57.4209 37.9243 54.0824 37.1902 49.9766 37.5481C47.5434 37.7684 46.045 38.1333 43.701 39.2631C44.4519 40.9395 44.5187 41.9383 42.9081 45.9035C39.9449 53.1079 37.1028 60.4086 34.7566 67.8662C33.3682 60.8956 32.6712 50.8114 30.3644 44.4818C28.9611 40.6662 25.7123 39.8888 21.9997 40.1988C19.4264 40.4239 17.3617 41.0387 14.9271 42.2618C15.2581 42.8898 15.9361 44.5414 15.4087 46.2362C13.3054 52.7299 8.93661 61.0976 5.55873 69.7518C2.24585 78.3058 -0.00635165 87.1698 0.908776 94.4895C1.62485 100.579 8.15544 104.927 15.9975 102.308C14.5137 95.7528 14.4789 88.3655 15.2609 80.959C16.0198 73.5519 17.7995 66.104 19.4252 59.3275C20.1852 64.8119 21.9616 74.914 23.0625 79.6781C24.1622 84.4207 24.8206 88.6981 29.0444 89.9003C32.5778 90.8873 36.4835 90.132 39.8534 88.4716C37.2552 81.583 42.8759 64.619 45.82 57.2481L45.8201 57.2482Z" fill="#222B7B"/>
<path d="M91.11 75.0656C88.7546 75.9462 81.649 76.5609 77.4522 75.9903C77.4304 75.9443 76.8645 66.8892 76.8305 66.3054C79.8522 66.308 83.4317 67.4195 86.2698 66.2967C88.8106 65.3082 88.7436 61.7265 88.3084 59.4121C84.5837 60.4587 80.5105 60.2158 76.628 60.3504C76.5902 59.5351 76.3116 54.4394 75.8628 51.3803C76.884 51.3184 81.708 51.979 84.0554 51.9369C89.6598 51.8311 89.5336 48.8759 88.9232 44.7676C87.2596 45.25 85.1547 45.7177 78.5437 45.534C73.1947 45.392 66.8284 44.4954 61.8701 46.5967C64.2386 49.1362 64.1319 55.9881 64.1611 61.3814C64.1911 66.7754 64.9544 80.6433 66.7809 83.7682C71.9772 83.1154 83.9803 83.1882 87.3038 83.2475C88.4478 83.2577 89.2799 83.0535 89.8508 82.6287C91.8043 81.2021 91.313 77.2127 91.1101 75.0656L91.11 75.0656Z" fill="#222B7B"/>
<path d="M106.273 49.638C105.109 43.7166 96.9544 44.0225 92.314 44.9144C94.7418 55.99 95.7552 66.7264 97.6471 78.1046C98.7813 84.8285 105.926 86.3369 111.612 85.2855C110.543 83.5955 110.738 82.0994 111.042 81.5011C114.661 73.747 120.704 64.8281 124.741 57.3012C126.408 54.1696 127.65 51.6811 127.843 50.2363C128.058 48.0895 126.852 46.9744 124.945 46.4986C122.849 45.9468 121.099 45.9577 118.98 46.2985C119.575 49.1141 118.957 52.196 117.992 55.0765C116.107 60.7644 110.835 68.1283 108.488 73.6639C107.441 66.3409 107.37 56.3101 106.273 49.6379L106.273 49.638Z" fill="#222B7B"/>
<path d="M129.777 69.4291C129.879 69.2066 136.56 58.161 136.56 58.161L138.109 67.0744C135.251 66.9592 131.766 68.2532 129.777 69.4291ZM141.275 91.2546C142.251 98.3582 150.153 98.0849 155.457 97.0584L151.196 76.1101C154.2 73.3588 157.045 70.3278 158.297 66.2228C155.752 67.6351 152.271 68.2532 149.338 68.3645L146.563 54.6941C145.145 47.698 142.808 46.4189 137.245 46.2611C136.428 46.2371 135.582 46.2733 134.763 46.3688C133.919 46.4314 133.042 46.5547 132.089 46.7362C133.222 48.7882 132.913 50.5917 132.552 51.2924C127.981 60.614 123.936 65.7617 118.956 74.7682C116.852 78.5566 115.273 81.8167 114.993 83.5319C114.636 86.0893 115.92 87.4448 118.038 88.0355C120.371 88.6855 122.376 88.67 124.79 88.2755C124.382 85.5499 124.904 82.3246 125.769 79.477C129.175 79.3921 134.679 80.397 138.367 80.4556L139.846 80.4435C140.033 82.3561 141.08 89.6322 141.275 91.2546H141.275Z" fill="#222B7B"/>
<path fill-rule="evenodd" clip-rule="evenodd" d="M47.0435 52.7677C47.1235 57.1985 47.1196 77.2095 49.7912 80.6792C49.7419 80.5621 49.6899 80.4234 49.6339 80.284C47.0035 73.0949 48.7383 56.5807 48.6081 48.7681L47.0435 52.7677V52.7677Z" fill="url(#paint0_linear)"/>
<path d="M140.944 44.6605L141.995 39.013C142.009 38.8827 142.086 38.8223 142.232 38.8355L143.424 38.9481C143.556 38.9606 143.612 39.0346 143.602 39.1652L142.551 44.8124C142.537 44.9587 142.448 45.0232 142.29 45.0082L141.11 44.8969C140.986 44.8849 140.931 44.8066 140.944 44.6605V44.6605ZM139.175 42.1456C139.162 42.2689 139.142 42.3889 139.112 42.4995C139.084 42.6136 139.044 42.7213 138.99 42.8292C138.938 42.9343 138.879 43.0297 138.817 43.1121C138.756 43.1919 138.681 43.2754 138.595 43.3573C138.315 43.6256 137.968 43.739 137.556 43.7006C137.358 43.6812 137.225 43.6321 137.159 43.5542C137.127 43.5128 137.105 43.4572 137.089 43.3895C137.077 43.3229 137.074 43.234 137.086 43.1289C137.137 42.8852 137.238 42.6517 137.383 42.4289L137.523 42.2433L137.853 41.9067C138.029 41.7419 138.201 41.6087 138.362 41.5139C138.495 41.4441 138.633 41.3991 138.782 41.3807C138.922 41.3943 139.034 41.4503 139.122 41.5527C139.183 41.6592 139.208 41.7953 139.192 41.9582L139.175 42.1456ZM137.919 38.6477C137.924 38.5881 137.92 38.5328 137.9 38.4786C137.886 38.4738 137.873 38.4695 137.87 38.4647L137.762 38.4132L136.562 38.2997C136.409 38.2846 136.326 38.3502 136.313 38.4966L135.694 41.7946L135.605 42.3889C135.535 43.137 135.647 43.6984 135.944 44.0757C136.24 44.4511 136.788 44.6774 137.582 44.7524C138.242 44.8161 138.853 44.6301 139.424 44.1986C140.034 43.7514 140.418 43.118 140.57 42.2978L140.616 42.0289L140.638 41.7991C140.688 41.2728 140.626 40.853 140.449 40.542C140.364 40.3908 140.249 40.2692 140.099 40.1803C139.952 40.0907 139.77 40.0361 139.553 40.0172C139.195 39.9817 138.79 40.135 138.341 40.4775C137.959 40.7574 137.642 41.1055 137.383 41.5224L137.919 38.6477L137.919 38.6477ZM130.83 43.0196L131.098 43.1111L131.431 43.1575C132.114 43.2105 132.647 42.9391 133.033 42.3446C133.336 41.8667 133.519 41.23 133.578 40.4354L133.597 40.2162C133.604 40.1269 133.604 40.0541 133.598 39.9944C133.591 39.9381 133.573 39.874 133.537 39.8027C133.505 39.6929 133.419 39.6325 133.287 39.6219C133.21 39.6157 133.132 39.627 133.055 39.6552C132.976 39.683 132.896 39.7291 132.811 39.7954C132.766 39.8174 132.646 39.9406 132.445 40.1628C132.239 40.3842 132.059 40.6053 131.898 40.8223C131.736 41.0389 131.581 41.2713 131.427 41.5165C131.396 41.5769 131.353 41.6542 131.303 41.7526C131.251 41.8502 131.179 42.0061 131.089 42.2173C130.995 42.4574 130.908 42.7238 130.83 43.0196ZM131.268 40.456C131.473 39.9875 131.689 39.5886 131.913 39.2567C132.14 38.928 132.378 38.6631 132.631 38.4688C133.03 38.1559 133.481 38.0186 133.982 38.0566C134.505 38.097 134.861 38.3249 135.054 38.7414C135.13 38.9225 135.182 39.123 135.211 39.3448C135.24 39.5656 135.246 39.8129 135.225 40.0885L135.205 40.3494L135.164 40.5998C135.078 41.1132 134.948 41.5761 134.774 41.9889C134.6 42.4036 134.377 42.7864 134.099 43.1406C133.771 43.559 133.408 43.862 133.013 44.0563C132.623 44.2496 132.197 44.3286 131.741 44.2942C131.507 44.2755 131.327 44.2455 131.201 44.2049L130.985 44.1438C130.892 44.1167 130.787 44.0574 130.675 43.9667L130.274 46.3267C130.242 46.4709 130.159 46.538 130.028 46.528L128.846 46.4366C128.715 46.4271 128.655 46.348 128.666 46.2027L130.042 38.0929C130.051 37.9545 130.131 37.8894 130.278 37.8997L131.459 37.9907C131.597 38.0017 131.66 38.0783 131.65 38.2166L131.268 40.456V40.456ZM127.663 38.8442L127.321 38.71L126.932 38.6316C126.344 38.5873 125.858 38.8501 125.473 39.4224C125.4 39.5362 125.331 39.6563 125.269 39.7811C125.205 39.907 125.143 40.0545 125.08 40.2199C124.972 40.5101 124.903 40.8233 124.876 41.1626L124.87 41.2494C124.864 41.3236 124.856 41.3742 124.838 41.4023L124.827 41.5575C124.812 41.7339 124.82 41.8813 124.857 42.0003C124.894 42.0969 124.988 42.1496 125.128 42.1599C125.48 42.1881 125.982 41.7247 126.632 40.7714C127.175 39.981 127.518 39.3376 127.663 38.8442H127.663ZM127.098 41.3562C126.846 42.0215 126.515 42.5683 126.102 42.9987C125.584 43.5341 125.009 43.776 124.379 43.7273C123.921 43.6922 123.592 43.4817 123.386 43.0967C123.345 43.0174 123.309 42.9291 123.273 42.8306C123.241 42.7315 123.216 42.6236 123.198 42.5043C123.182 42.3875 123.175 42.2686 123.169 42.1493C123.167 42.0325 123.171 41.9091 123.182 41.7793L123.195 41.5659L123.236 41.3325C123.318 40.8259 123.444 40.3604 123.609 39.9359C123.777 39.5113 123.988 39.1198 124.245 38.7589C124.892 37.8411 125.692 37.4191 126.643 37.4916C126.997 37.5183 127.388 37.6486 127.816 37.8781C127.825 37.7727 127.88 37.7174 127.982 37.7141L129.16 37.8052C129.291 37.8148 129.353 37.8931 129.342 38.0373L128.392 43.6907C128.381 43.8389 128.293 43.9055 128.134 43.893L126.91 43.7994C126.779 43.7892 126.718 43.7104 126.73 43.5659L127.098 41.3562L127.098 41.3562ZM115.84 39.5417C116.093 38.8878 116.423 38.3172 116.833 37.8342C117.088 37.537 117.358 37.3185 117.633 37.1791C117.911 37.04 118.206 36.9803 118.52 36.9994C118.874 37.0203 119.132 37.1494 119.291 37.384C119.369 37.4993 119.428 37.6336 119.467 37.7888C119.507 37.9432 119.522 38.1164 119.51 38.3099L119.475 38.5503L119.29 39.7467C119.338 39.649 119.387 39.5491 119.435 39.4495C119.502 39.3178 119.58 39.1681 119.678 39.0023C119.737 38.8933 119.783 38.8051 119.819 38.7359C119.857 38.6664 119.89 38.6166 119.915 38.5855C120.178 38.143 120.459 37.8089 120.759 37.5835C121.133 37.3039 121.541 37.1787 121.991 37.205C122.344 37.2256 122.604 37.365 122.771 37.6223C122.912 37.8374 122.97 38.1397 122.95 38.5248L122.91 38.796L122.235 43.279C122.226 43.425 122.145 43.4939 121.983 43.4832L120.756 43.4111C120.626 43.4041 120.564 43.3262 120.573 43.1806L121.106 39.5268L121.158 39.2014C121.167 39.0518 121.093 38.9649 120.932 38.9423C120.78 38.9339 120.615 39.0192 120.445 39.2032L120.087 39.6863C119.887 39.9717 119.708 40.2521 119.55 40.5269C119.394 40.8047 119.261 41.0652 119.155 41.3123C118.955 41.8133 118.839 42.3788 118.8 43.0107C118.788 43.1988 118.704 43.2896 118.542 43.28L117.318 43.2076C117.186 43.1988 117.124 43.1209 117.132 42.9753L117.679 39.3017L117.719 38.9975C117.706 38.8464 117.628 38.7601 117.482 38.7373C117.31 38.7278 117.122 38.8339 116.927 39.0583L116.528 39.6315L115.828 40.8201C115.563 41.3555 115.408 42.0402 115.357 42.8702C115.35 43.017 115.264 43.0854 115.104 43.0755L113.921 43.0052C113.796 42.9983 113.739 42.9214 113.749 42.7747L114.598 37.1055C114.607 36.9664 114.687 36.8998 114.832 36.9086L116.025 36.9789C116.156 36.9865 116.218 37.0624 116.21 37.2014L115.84 39.5417L115.84 39.5417ZM109.872 39.7211L109.828 39.6332C109.845 39.5549 109.878 39.4942 109.927 39.4492L112.326 37.0012C112.395 36.9368 112.483 36.9061 112.593 36.9094L114.006 36.9686C114.076 36.9727 114.117 36.9957 114.138 37.0389C114.134 37.0898 114.097 37.1542 114.028 37.234L111.588 39.6157L113.126 42.7608C113.132 42.7717 113.142 42.797 113.152 42.8351C113.163 42.8713 113.171 42.9058 113.175 42.9346C113.172 43.0316 113.106 43.077 112.973 43.0715L111.469 43.0082C111.354 43.0034 111.278 42.9643 111.244 42.8918L109.872 39.7211V39.7211ZM107.73 42.6313L108.483 36.9573C108.51 36.8454 108.581 36.7747 108.699 36.7465L109.895 36.797C110.026 36.8032 110.087 36.8787 110.084 37.0246L109.333 42.6993C109.326 42.845 109.244 42.9149 109.09 42.9097L107.909 42.8596C107.784 42.8548 107.723 42.7784 107.73 42.6313ZM104.459 39.1845C104.897 39.2032 105.293 39.1556 105.65 39.0404C106.128 38.883 106.372 38.6162 106.389 38.2451C106.402 37.87 106.222 37.6738 105.842 37.6589C105.473 37.6435 105.151 37.8023 104.884 38.1387C104.72 38.3483 104.577 38.6949 104.459 39.1845ZM104.312 40.2678C104.298 40.673 104.403 41.0144 104.634 41.2966C104.868 41.5392 105.207 41.6691 105.649 41.687C105.772 41.6921 105.887 41.6904 105.991 41.6801C106.089 41.6684 106.216 41.6475 106.37 41.6102L107.147 41.3749C107.237 41.3789 107.279 41.4312 107.273 41.5363L107.158 42.3769C107.148 42.598 106.86 42.7546 106.291 42.8461L105.709 42.8965L105.071 42.9072C104.324 42.8757 103.744 42.6598 103.331 42.2645C102.917 41.8674 102.724 41.2954 102.756 40.5449L102.764 40.3568L102.794 40.1489C102.859 39.6585 102.971 39.2083 103.138 38.801C103.303 38.393 103.524 38.0175 103.798 37.675C104.417 36.8888 105.207 36.5167 106.167 36.5558C106.42 36.5668 106.648 36.6013 106.849 36.6609C107.049 36.7175 107.227 36.8061 107.377 36.9236C107.708 37.1813 107.867 37.53 107.848 37.9754L107.839 38.1492C107.824 38.5218 107.701 38.8633 107.471 39.1718C107.356 39.3174 107.223 39.4488 107.072 39.5685C106.921 39.6874 106.742 39.7928 106.538 39.8887C106.23 40.0259 105.887 40.1288 105.509 40.1961C105.134 40.2627 104.734 40.2857 104.312 40.2678V40.2678ZM102.683 36.7798C102.686 36.633 102.618 36.5594 102.479 36.5551L101.349 36.5269C101.265 36.5247 101.193 36.5515 101.126 36.6016C101.118 36.6173 101.112 36.633 101.11 36.6499C101.095 36.6938 101.081 36.7297 101.07 36.7623L100.827 38.9244L98.901 38.876L99.1526 36.6938C99.1533 36.6327 99.1442 36.5774 99.1227 36.5266C99.104 36.5225 99.0904 36.5182 99.0868 36.5141L98.9804 36.4687L97.7859 36.4406C97.6334 36.4369 97.5551 36.5082 97.5508 36.6547L96.8939 42.3417C96.8899 42.4874 96.9505 42.5616 97.0826 42.5642L98.2683 42.5942C98.4153 42.5972 98.4914 42.5273 98.4929 42.3802L98.7598 40.0581L100.692 40.1053L100.427 42.4267C100.428 42.4943 100.436 42.5503 100.458 42.5942L100.613 42.6514L101.804 42.6802C101.951 42.6839 102.028 42.6129 102.03 42.4662L102.683 36.7798ZM91.3219 40.0127C91.1998 40.3758 91.0637 40.7081 90.9097 41.0053C90.7554 41.3021 90.5772 41.5721 90.3761 41.8126C89.8674 42.4274 89.2866 42.7326 88.6319 42.7286C88.3035 42.7257 88.0427 42.6221 87.8518 42.4171C87.6609 42.2126 87.5666 41.9359 87.5695 41.5897L87.5929 41.3697L88.053 36.6725C88.0555 36.5254 88.1316 36.4537 88.2848 36.4533L89.5126 36.4636C89.6447 36.4636 89.7065 36.5364 89.7079 36.6825L89.347 40.3794L89.3279 40.4819L89.3436 40.853C89.3436 40.9054 89.4022 40.932 89.5232 40.9332C89.6611 40.9349 89.844 40.8245 90.0769 40.6045C90.1822 40.4915 90.2913 40.3513 90.4039 40.1844C90.5199 40.016 90.6453 39.8119 90.7876 39.5699C91.1094 39.0176 91.3315 38.5464 91.4555 38.1543C91.5161 37.9604 91.5608 37.7466 91.5958 37.511C91.6281 37.2754 91.6463 37.0229 91.6478 36.7501C91.6489 36.5683 91.7289 36.4782 91.8862 36.4794L93.0595 36.487C93.1927 36.4881 93.2585 36.5617 93.2567 36.7084L92.696 42.4142C92.6978 42.5609 92.6151 42.633 92.4546 42.632L91.2798 42.6246C91.1555 42.6236 91.0945 42.55 91.0945 42.4028L91.3219 40.0127L91.3219 40.0127ZM81.8069 40.1266C81.6968 40.4936 81.5732 40.8311 81.4288 41.1325C81.2857 41.436 81.1175 41.7115 80.9237 41.9582C80.4376 42.5913 79.8689 42.9163 79.2157 42.935C78.8861 42.9441 78.6225 42.8479 78.4221 42.6507C78.2246 42.4533 78.121 42.1793 78.1111 41.8334L78.1262 41.6131L78.4238 36.902C78.418 36.7553 78.493 36.6806 78.6469 36.6758L79.8747 36.6418C80.0057 36.6378 80.0744 36.7091 80.0777 36.8552L79.8448 40.5624L79.8309 40.6652L79.858 41.0349C79.8609 41.0872 79.9209 41.1132 80.0411 41.1095C80.1787 41.1062 80.3575 40.9885 80.5831 40.7612C80.686 40.6459 80.7883 40.5013 80.8967 40.3293C81.0023 40.158 81.1251 39.9501 81.2584 39.7031C81.5605 39.1399 81.7656 38.6602 81.8749 38.2642C81.9291 38.0683 81.966 37.8539 81.992 37.6168C82.018 37.3793 82.0271 37.1274 82.018 36.8541C82.0128 36.6725 82.0911 36.5793 82.248 36.5749L83.4206 36.5423C83.5515 36.539 83.6221 36.61 83.625 36.756L83.2648 42.4783C83.2698 42.625 83.1887 42.7 83.0282 42.7051L81.8588 42.7381C81.7324 42.7414 81.6673 42.6696 81.6635 42.5233L81.8069 40.1266L81.8069 40.1266ZM74.1492 39.776L74.0987 39.6918C74.1067 39.6128 74.1363 39.5498 74.1854 39.5015L76.4065 36.8918C76.4679 36.8226 76.5556 36.7853 76.6654 36.7824L78.0801 36.7421C78.1481 36.7403 78.1923 36.7608 78.2162 36.8032C78.2158 36.8541 78.1851 36.9211 78.1181 37.0052L75.8535 39.5516L77.6043 42.5818C77.6112 42.5924 77.6229 42.6155 77.6346 42.6546C77.6496 42.6898 77.6591 42.7235 77.669 42.7527C77.6704 42.849 77.6068 42.8988 77.4748 42.9013L75.9705 42.9448C75.8546 42.9482 75.7763 42.9134 75.7368 42.8428L74.1492 39.776L74.1492 39.776ZM72.2144 42.8303L72.5699 37.1161C72.5879 37.0023 72.6544 36.9273 72.771 36.8914L73.9663 36.8581C74.098 36.8545 74.1655 36.9251 74.1693 37.0711L73.8152 42.7849C73.8207 42.931 73.7458 43.0074 73.5914 43.0112L72.4082 43.0429C72.282 43.0466 72.2185 42.9763 72.2144 42.8303V42.8303ZM69.946 39.8718L69.9326 39.65L69.9234 39.4909C69.8978 39.088 69.817 38.7812 69.6831 38.5716C69.5087 38.3015 69.268 38.177 68.9601 38.1969C68.5434 38.2232 68.2381 38.5038 68.0443 39.0334C67.9488 39.3661 67.8764 39.8507 67.8321 40.487L67.8237 40.7066L67.8387 40.9397C67.8643 41.3595 67.9565 41.7031 68.1137 41.9692C68.2717 42.2177 68.5164 42.33 68.8423 42.3099C69.2436 42.2847 69.5431 42.027 69.7427 41.5381C69.8342 41.2604 69.9015 40.7047 69.946 39.8718V39.8718ZM71.6109 39.8799C71.5966 40.3746 71.5323 40.8201 71.4211 41.2153C71.3117 41.6116 71.1413 41.9732 70.9138 42.2989C70.4238 43.0352 69.7229 43.4312 68.8098 43.4894C68.03 43.5381 67.4068 43.3559 66.9474 42.9412C66.4873 42.5247 66.2309 41.926 66.182 41.1469L66.1688 40.9358L66.1772 40.7044C66.1673 40.5621 66.1629 40.4321 66.1629 40.3135C66.1603 40.1961 66.1677 40.0833 66.1834 39.9798C66.2024 39.7537 66.254 39.5183 66.3377 39.2772C66.4523 38.8789 66.6424 38.5002 66.9057 38.1397C67.3903 37.4433 68.079 37.066 68.9655 37.0097C69.7537 36.9606 70.3788 37.1484 70.8389 37.5743C71.2986 37.9995 71.5542 38.6257 71.605 39.4495L71.6226 39.7127L71.6109 39.8799L71.6109 39.8799ZM65.8443 42.1716L65.8498 43.0529C65.8652 43.2391 65.6224 43.4129 65.1213 43.5743L64.5533 43.7171L64.0347 43.8063C63.2744 43.8682 62.676 43.705 62.24 43.3164C61.8029 42.9288 61.5572 42.3996 61.5027 41.7302L61.4764 41.4085C61.4651 41.2662 61.4596 41.1388 61.4567 41.0232C61.4555 40.9097 61.4632 40.7948 61.4775 40.6832C61.4947 40.4728 61.5386 40.2309 61.6135 39.9571C61.7239 39.5531 61.905 39.1494 62.1555 38.745C62.6771 37.9047 63.4276 37.4433 64.4136 37.3643C64.7172 37.3394 65.0372 37.3566 65.3729 37.4148C65.7087 37.4718 65.8824 37.5729 65.8938 37.7185L65.9058 37.8572C65.9109 37.9249 65.9084 37.9875 65.8981 38.0475L65.8915 38.6115C65.8981 38.6975 65.8539 38.7443 65.7576 38.7527C65.6754 38.7596 65.5273 38.7176 65.3122 38.629C65.099 38.5409 64.8934 38.5045 64.7021 38.52C64.1752 38.562 63.7644 38.86 63.4667 39.4111C63.282 39.7807 63.1748 40.3169 63.1452 41.0239C63.1635 41.2552 63.1957 41.4513 63.2411 41.6175C63.2875 41.7833 63.3558 41.9304 63.4492 42.0585C63.6639 42.4058 63.9576 42.5661 64.3313 42.5357L64.6191 42.502C64.6741 42.4904 64.7318 42.4739 64.7885 42.4567C64.8484 42.4373 64.918 42.4061 65.0002 42.3648L65.7277 42.0468C65.7653 42.0442 65.8055 42.0849 65.8443 42.1716Z" fill="#DA251D"/>
<path fill-rule="evenodd" clip-rule="evenodd" d="M24.4344 97.9246C51.251 90.0176 93.9573 82.0227 136.056 94.6558C140.309 95.9327 138.697 101.107 134.649 99.8434C100.363 89.1272 63.2793 89.66 25.234 99.5422C23.8149 99.9111 23.2312 99.612 23.0885 99.3878C22.9335 99.1429 22.7718 98.4157 24.4344 97.9246L24.4344 97.9246Z" fill="#222B7B"/>
<path fill-rule="evenodd" clip-rule="evenodd" d="M94.9435 89.5333C96.0816 88.6949 97.4258 88.2891 98.9476 88.378C99.453 88.4094 99.9537 88.4889 100.437 88.6363C100.94 88.7898 101.411 89.0308 101.82 89.3625C102.766 90.1258 103.209 91.197 103.138 92.4062L103.121 92.6986C103.067 93.6388 102.733 94.5036 102.15 95.2438C101.874 95.593 101.551 95.8982 101.198 96.1665C101.054 96.277 100.902 96.3795 100.747 96.475C101.631 96.6788 102.194 97.5158 102.057 98.4541L101.849 99.8511C101.64 101.265 100.242 101.821 98.9856 101.908L97.9637 101.978L96.8428 101.976C95.3535 101.974 93.9491 101.479 92.8759 100.426C92.8496 100.399 92.8215 100.373 92.7945 100.345C92.297 100.951 91.4558 101.268 90.6684 101.395L89.6487 101.559L88.7194 101.638C87.1803 101.768 85.7291 101.267 84.6466 100.166C84.4227 100.97 83.7381 101.507 82.8445 101.533L80.8663 101.588C80.5115 101.599 80.1853 101.515 79.9095 101.361C79.617 101.581 79.2497 101.718 78.8342 101.744L76.8853 101.866C76.2408 101.908 75.6809 101.64 75.3264 101.193C74.5383 101.855 73.5965 102.278 72.4965 102.349C71.5758 102.405 70.7083 102.148 70.0277 101.516C69.801 101.305 69.6068 101.07 69.4498 100.815L69.4378 101.942C69.4301 102.604 69.4023 103.219 69.1668 103.849C68.9265 104.489 68.5428 105.045 68.0508 105.518C67.0974 106.435 65.8755 106.864 64.5742 106.97C64.0575 107.011 63.5392 107.01 63.0212 106.969C61.8418 106.872 60.5939 106.301 60.61 104.921L60.6191 104.175L60.6246 103.551C60.6297 102.741 61.118 102.074 61.8762 101.795L62.119 101.704L62.924 101.69L63.5004 101.876C63.5095 101.879 63.5198 101.884 63.5304 101.888C63.5919 101.774 63.6094 101.626 63.612 101.504L63.7176 91.1315C63.7217 90.7304 63.8281 90.3659 64.0168 90.0629C63.748 89.7182 63.5977 89.2874 63.5603 88.8267C63.515 88.2664 63.489 87.5923 63.6898 87.0601C64.0475 86.1167 64.9071 85.6438 65.8791 85.5648L67.1878 85.4597C67.7429 85.4163 68.2974 85.4824 68.7634 85.7983C69.3617 86.1763 69.6602 86.8428 69.6729 87.5435L69.6887 88.4281C69.6982 88.9481 69.5336 89.4286 69.2454 89.8476C69.2867 89.911 69.3258 89.9779 69.3591 90.0464C69.6269 89.3987 70.2223 88.9599 70.9977 88.9112L73.0385 88.7838C74.0318 88.7213 74.8353 89.3833 74.9867 90.3164L75.1956 90.2909C75.2778 89.3379 75.9694 88.5991 76.9829 88.5342L78.9349 88.412C79.177 88.397 79.4066 88.424 79.6213 88.4892C79.5522 88.274 79.5109 88.038 79.5035 87.7873C79.4882 87.2241 79.4985 86.5493 79.7271 86.0277C80.1293 85.1124 81.0028 84.6785 81.9716 84.6513L83.2286 84.6155C83.8017 84.6009 84.3617 84.7147 84.828 85.0605C85.4033 85.4853 85.698 86.15 85.6746 86.8596L85.6439 87.709C85.6286 88.2436 85.4241 88.7461 85.0774 89.1337C85.152 89.2643 85.208 89.403 85.2489 89.5516L85.8744 89.5414C87.0388 88.4819 88.4901 87.9403 90.1655 87.9531C90.8275 87.9571 91.4848 88.0551 92.123 88.2228C92.8687 88.4182 93.5771 88.808 93.9012 89.4616C94.1067 89.4696 94.2644 89.4799 94.3594 89.4945C94.5222 89.5168 94.7233 89.5282 94.9435 89.5333L94.9435 89.5333Z" fill="#0C1C8C"/>
<path d="M95.9377 94.2319C96.6648 94.2747 97.3282 94.207 97.9273 94.0254C98.7224 93.777 99.1401 93.3411 99.1756 92.7233C99.2132 92.0994 98.914 91.7667 98.2758 91.7287C97.6526 91.6917 97.1187 91.9508 96.675 92.5012C96.3912 92.8445 96.1469 93.4187 95.9377 94.2319ZM95.663 96.0325C95.6217 96.7051 95.7899 97.2748 96.167 97.7536C96.5478 98.1638 97.1095 98.39 97.8461 98.4327C98.2185 98.4559 98.6178 98.4178 99.0392 98.3249L100.349 97.956C100.491 97.964 100.555 98.0547 100.546 98.2282L100.338 99.6262C100.317 99.9951 99.8313 100.246 98.8811 100.382L97.9126 100.45L96.848 100.448C95.606 100.375 94.6401 100.002 93.9459 99.3356C93.6138 99.0004 93.3728 98.592 93.2236 98.1158C93.0718 97.6405 93.0173 97.0838 93.0535 96.4485L93.0707 96.1353L93.1369 95.7898C93.2565 94.9726 93.4602 94.2275 93.7481 93.5549C94.0333 92.8785 94.4137 92.26 94.8781 91.6983C95.9297 90.4068 97.2554 89.8085 98.8577 89.9043C99.2776 89.9295 99.6568 89.9944 99.9874 90.0972C100.319 90.1985 100.613 90.3511 100.861 90.551C101.405 90.9905 101.657 91.5761 101.613 92.3157L101.597 92.607C101.56 93.2248 101.344 93.7901 100.951 94.2989C100.761 94.5363 100.533 94.7515 100.276 94.9481C100.022 95.1409 99.7223 95.3111 99.38 95.4655C98.8618 95.684 98.2853 95.8457 97.6577 95.9457C97.0283 96.0456 96.3623 96.0727 95.663 96.0324L95.663 96.0325ZM91.832 97.6647L91.7098 99.1271C91.7098 99.4381 91.279 99.6906 90.4271 99.886L89.4638 100.041L88.5912 100.115C87.3217 100.105 86.351 99.748 85.684 99.0402C85.0161 98.334 84.6843 97.4213 84.691 96.3014L84.6953 95.7642C84.6979 95.5273 84.7027 95.3126 84.718 95.1222C84.7305 94.9323 84.7597 94.7431 84.7999 94.5608C84.8566 94.2143 84.9682 93.8191 85.1313 93.374C85.3745 92.7215 85.7336 92.0777 86.2044 91.445C87.1926 90.1242 88.5063 89.4691 90.1554 89.4809C90.6593 89.4842 91.1897 89.5577 91.7351 89.7012C92.2876 89.8458 92.5598 90.0397 92.5586 90.2838L92.5579 90.5159C92.5572 90.6297 92.5433 90.7325 92.5191 90.8291L92.4236 91.7634C92.4236 91.9095 92.3443 91.9816 92.1827 91.9797C92.0448 91.979 91.8023 91.8882 91.4629 91.7088C91.117 91.5332 90.7837 91.4417 90.4648 91.4392C89.5823 91.434 88.8593 91.8674 88.2857 92.7388C87.9247 93.3243 87.6698 94.2004 87.5188 95.3675C87.5148 95.7532 87.5412 96.0859 87.5898 96.3684C87.6424 96.6472 87.7368 96.9013 87.871 97.1274C88.1778 97.7371 88.6424 98.0452 89.2667 98.0485L89.7472 98.0336C89.843 98.0226 89.9411 98.0046 90.0383 97.983C90.1382 97.9607 90.259 97.9197 90.4019 97.8611L91.6516 97.441C91.7167 97.4417 91.777 97.516 91.832 97.6647V97.6647ZM81.0325 87.7432C81.0138 87.1771 81.0468 86.8097 81.1258 86.6439C81.2483 86.3475 81.5464 86.1923 82.0156 86.1784L83.2715 86.1444C83.5652 86.1363 83.7788 86.185 83.9221 86.2915C84.0667 86.3969 84.1383 86.567 84.1486 86.809L84.1189 87.6569C84.0893 87.9072 83.9803 88.1027 83.7861 88.2469C83.6918 88.2966 83.5846 88.3372 83.4599 88.3676C83.3351 88.3983 83.1958 88.4152 83.04 88.4189L81.8693 88.4493C81.3266 88.4668 81.046 88.2307 81.0324 87.7432L81.0325 87.7432ZM80.5091 99.7019L81.0965 90.1502C81.0928 89.9306 81.2113 89.8183 81.4542 89.8109L83.4467 89.755C83.6676 89.7498 83.7773 89.8563 83.7839 90.0751L83.1932 99.6268C83.2009 99.8702 83.0711 99.9957 82.802 100.004L80.8232 100.059C80.6211 100.065 80.5158 99.9453 80.5091 99.7019H80.5091ZM76.5496 95.9984C76.3935 96.615 76.2048 97.1826 75.9824 97.6942C75.7608 98.2066 75.4985 98.6746 75.1873 99.0962C74.4166 100.179 73.4888 100.753 72.4011 100.822C71.8525 100.857 71.4103 100.714 71.0684 100.395C70.7271 100.079 70.5358 99.6287 70.4997 99.0534L70.5136 98.6853L70.7338 90.8265C70.7176 90.5824 70.8391 90.454 71.0951 90.4375L73.134 90.3094C73.3539 90.2944 73.4691 90.41 73.4859 90.6527L73.3121 96.8368L73.295 97.0084L73.3637 97.6218C73.3671 97.7092 73.4708 97.7488 73.6717 97.7363C73.8981 97.7224 74.1928 97.5171 74.5553 97.1248C74.7163 96.9257 74.8812 96.6797 75.0483 96.3881C75.2184 96.096 75.4086 95.7426 75.6141 95.3232C76.0844 94.3687 76.4 93.5599 76.5577 92.8931C76.6378 92.5656 76.6882 92.2058 76.7179 91.8088C76.7442 91.412 76.7449 90.9916 76.7164 90.5378C76.697 90.2358 76.8196 90.0767 77.0796 90.0602L79.0319 89.9373C79.2509 89.9233 79.3687 90.0386 79.3826 90.283L79.1164 99.8268C79.1307 100.071 79.006 100.201 78.7383 100.218L76.7896 100.341C76.58 100.354 76.4689 100.238 76.452 99.9957L76.5496 95.9984V95.9984ZM65.0837 88.7042C65.0373 88.1393 65.0516 87.7718 65.1193 87.6001C65.2268 87.299 65.5223 87.1273 66.0018 87.0878L67.3105 86.9835C67.611 86.9598 67.818 86.9919 67.9255 87.0775C68.0503 87.1438 68.1238 87.3088 68.1465 87.5723L68.1615 88.4562C68.1432 88.6838 68.0682 88.8836 67.9325 89.0556C67.7972 89.1672 67.5862 89.2367 67.294 89.2599L65.9993 89.3645C65.8943 89.3722 65.7937 89.3653 65.6851 89.3433C65.5794 89.325 65.4758 89.2901 65.3673 89.2441C65.2015 89.1442 65.1043 88.9648 65.0838 88.7042H65.0837ZM68.0306 90.9224L67.9102 101.927C67.9508 102.43 67.8927 102.891 67.738 103.31C67.5793 103.728 67.3298 104.098 66.9919 104.416C66.3833 105.015 65.5366 105.357 64.4529 105.446C64.0246 105.48 63.5901 105.478 63.1446 105.444C62.4966 105.389 62.1616 105.221 62.1382 104.941L62.1476 104.187L62.1528 103.56C62.1407 103.405 62.2227 103.295 62.404 103.227L62.697 103.222L63.029 103.331C63.299 103.417 63.4914 103.453 63.6095 103.443C64.074 103.406 64.4376 103.218 64.7042 102.875C64.9671 102.535 65.1145 102.084 65.139 101.519L65.2472 91.1468C65.2254 90.892 65.3431 90.7525 65.5977 90.7331L67.6535 90.5666C67.8839 90.548 68.0093 90.6677 68.0306 90.9224H68.0306Z" fill="#FFF500"/>
<path d="M95.9377 94.2319C96.6648 94.2747 97.3282 94.207 97.9273 94.0254C98.7224 93.777 99.1401 93.3411 99.1756 92.7233C99.2132 92.0994 98.914 91.7667 98.2758 91.7287C97.6526 91.6917 97.1187 91.9508 96.675 92.5012C96.3912 92.8445 96.1469 93.4187 95.9377 94.2319V94.2319ZM95.663 96.0325C95.6217 96.7051 95.7899 97.2748 96.167 97.7536C96.5478 98.1638 97.1095 98.39 97.8461 98.4327C98.2185 98.4559 98.6178 98.4178 99.0392 98.3249L100.349 97.956C100.491 97.964 100.555 98.0547 100.546 98.2282L100.338 99.6262C100.317 99.9951 99.8313 100.246 98.8811 100.382L97.9126 100.45L96.848 100.448C95.606 100.375 94.6401 100.002 93.9459 99.3356C93.6138 99.0004 93.3728 98.592 93.2236 98.1158C93.0718 97.6405 93.0173 97.0838 93.0535 96.4485L93.0707 96.1353L93.1369 95.7898C93.2565 94.9726 93.4602 94.2275 93.7481 93.5549C94.0333 92.8785 94.4137 92.26 94.8781 91.6983C95.9297 90.4068 97.2554 89.8085 98.8577 89.9043C99.2776 89.9295 99.6568 89.9944 99.9874 90.0972C100.319 90.1985 100.613 90.3511 100.861 90.551C101.405 90.9905 101.657 91.5761 101.613 92.3157L101.597 92.607C101.56 93.2248 101.344 93.7901 100.951 94.2989C100.761 94.5363 100.533 94.7515 100.276 94.9481C100.022 95.1409 99.7223 95.3111 99.38 95.4655C98.8618 95.684 98.2853 95.8457 97.6577 95.9457C97.0283 96.0456 96.3623 96.0727 95.663 96.0324L95.663 96.0325ZM91.832 97.6647L91.7098 99.1271C91.7098 99.4381 91.279 99.6906 90.4271 99.886L89.4638 100.041L88.5912 100.115C87.3217 100.105 86.351 99.748 85.684 99.0402C85.0161 98.334 84.6843 97.4213 84.691 96.3014L84.6953 95.7642C84.6979 95.5273 84.7027 95.3126 84.718 95.1222C84.7305 94.9323 84.7597 94.7431 84.7999 94.5608C84.8566 94.2143 84.9682 93.8191 85.1313 93.374C85.3745 92.7215 85.7336 92.0777 86.2044 91.445C87.1926 90.1242 88.5063 89.4691 90.1554 89.4809C90.6593 89.4842 91.1897 89.5577 91.7351 89.7012C92.2876 89.8458 92.5598 90.0397 92.5586 90.2838L92.5579 90.5159C92.5572 90.6297 92.5433 90.7325 92.5191 90.8291L92.4236 91.7634C92.4236 91.9095 92.3443 91.9816 92.1827 91.9797C92.0448 91.979 91.8023 91.8882 91.4629 91.7088C91.117 91.5332 90.7837 91.4417 90.4648 91.4392C89.5823 91.434 88.8593 91.8674 88.2857 92.7388C87.9247 93.3243 87.6698 94.2004 87.5188 95.3675C87.5148 95.7532 87.5412 96.0859 87.5898 96.3684C87.6424 96.6472 87.7368 96.9013 87.871 97.1274C88.1778 97.7371 88.6424 98.0452 89.2667 98.0485L89.7472 98.0336C89.843 98.0226 89.9411 98.0046 90.0383 97.983C90.1382 97.9607 90.259 97.9197 90.4019 97.8611L91.6516 97.441C91.7167 97.4417 91.777 97.516 91.832 97.6647V97.6647ZM81.0325 87.7432C81.0138 87.1771 81.0468 86.8097 81.1258 86.6439C81.2483 86.3475 81.5464 86.1923 82.0156 86.1784L83.2715 86.1444C83.5652 86.1363 83.7788 86.185 83.9221 86.2915C84.0667 86.3969 84.1383 86.567 84.1486 86.809L84.1189 87.6569C84.0893 87.9072 83.9803 88.1027 83.7861 88.2469C83.6918 88.2966 83.5846 88.3372 83.4599 88.3676C83.3351 88.3983 83.1958 88.4152 83.04 88.4189L81.8693 88.4493C81.3266 88.4668 81.046 88.2307 81.0324 87.7432L81.0325 87.7432ZM80.5091 99.7019L81.0965 90.1502C81.0928 89.9306 81.2113 89.8183 81.4542 89.8109L83.4467 89.755C83.6676 89.7498 83.7773 89.8563 83.7839 90.0751L83.1932 99.6268C83.2009 99.8702 83.0711 99.9957 82.802 100.004L80.8232 100.059C80.6211 100.065 80.5158 99.9453 80.5091 99.7019H80.5091ZM76.5496 95.9984C76.3935 96.615 76.2048 97.1826 75.9824 97.6942C75.7608 98.2066 75.4985 98.6746 75.1873 99.0962C74.4166 100.179 73.4888 100.753 72.4011 100.822C71.8525 100.857 71.4103 100.714 71.0684 100.395C70.7271 100.079 70.5358 99.6287 70.4997 99.0534L70.5136 98.6853L70.7338 90.8265C70.7176 90.5824 70.8391 90.454 71.0951 90.4375L73.134 90.3094C73.3539 90.2944 73.4691 90.41 73.4859 90.6527L73.3121 96.8368L73.295 97.0084L73.3637 97.6218C73.3671 97.7092 73.4708 97.7488 73.6717 97.7363C73.8981 97.7224 74.1928 97.5171 74.5553 97.1248C74.7163 96.9257 74.8812 96.6797 75.0483 96.3881C75.2184 96.096 75.4086 95.7426 75.6141 95.3232C76.0844 94.3687 76.4 93.5599 76.5577 92.8931C76.6378 92.5656 76.6882 92.2058 76.7179 91.8088C76.7442 91.412 76.7449 90.9916 76.7164 90.5378C76.697 90.2358 76.8196 90.0767 77.0796 90.0602L79.0319 89.9373C79.2509 89.9233 79.3687 90.0386 79.3826 90.283L79.1164 99.8268C79.1307 100.071 79.006 100.201 78.7383 100.218L76.7896 100.341C76.58 100.354 76.4689 100.238 76.452 99.9957L76.5496 95.9984V95.9984ZM65.0837 88.7042C65.0373 88.1393 65.0516 87.7718 65.1193 87.6001C65.2268 87.299 65.5223 87.1273 66.0018 87.0878L67.3105 86.9835C67.611 86.9598 67.818 86.9919 67.9255 87.0775C68.0503 87.1438 68.1238 87.3088 68.1465 87.5723L68.1615 88.4562C68.1432 88.6838 68.0682 88.8836 67.9325 89.0556C67.7972 89.1672 67.5862 89.2367 67.294 89.2599L65.9993 89.3645C65.8943 89.3722 65.7937 89.3653 65.6851 89.3433C65.5794 89.325 65.4758 89.2901 65.3673 89.2441C65.2015 89.1442 65.1043 88.9648 65.0838 88.7042H65.0837ZM68.0306 90.9224L67.9102 101.927C67.9508 102.43 67.8927 102.891 67.738 103.31C67.5793 103.728 67.3298 104.098 66.9919 104.416C66.3833 105.015 65.5366 105.357 64.4529 105.446C64.0246 105.48 63.5901 105.478 63.1446 105.444C62.4966 105.389 62.1616 105.221 62.1382 104.941L62.1476 104.187L62.1528 103.56C62.1407 103.405 62.2227 103.295 62.404 103.227L62.697 103.222L63.029 103.331C63.299 103.417 63.4914 103.453 63.6095 103.443C64.074 103.406 64.4376 103.218 64.7042 102.875C64.9671 102.535 65.1145 102.084 65.139 101.519L65.2472 91.1468C65.2254 90.892 65.3431 90.7525 65.5977 90.7331L67.6535 90.5666C67.8839 90.548 68.0093 90.6677 68.0306 90.9224H68.0306Z" stroke="#FFF500" stroke-width="0.345235" stroke-linecap="round" stroke-linejoin="round"/>
<path d="M95.9377 94.2319C96.6648 94.2747 97.3282 94.207 97.9273 94.0254C98.7224 93.777 99.1401 93.3411 99.1756 92.7233C99.2132 92.0994 98.914 91.7667 98.2758 91.7287C97.6526 91.6917 97.1187 91.9508 96.675 92.5012C96.3912 92.8445 96.1469 93.4187 95.9377 94.2319ZM95.663 96.0325C95.6217 96.7051 95.7899 97.2748 96.167 97.7536C96.5478 98.1638 97.1095 98.39 97.8461 98.4327C98.2185 98.4559 98.6178 98.4178 99.0392 98.3249L100.349 97.956C100.491 97.964 100.555 98.0547 100.546 98.2282L100.338 99.6262C100.317 99.9951 99.8313 100.246 98.8811 100.382L97.9126 100.45L96.848 100.448C95.606 100.375 94.6401 100.002 93.9459 99.3356C93.6138 99.0004 93.3728 98.592 93.2236 98.1158C93.0718 97.6405 93.0173 97.0838 93.0535 96.4485L93.0707 96.1353L93.1369 95.7898C93.2565 94.9726 93.4602 94.2275 93.7481 93.5549C94.0333 92.8785 94.4137 92.26 94.8781 91.6983C95.9297 90.4068 97.2554 89.8085 98.8577 89.9043C99.2776 89.9295 99.6568 89.9944 99.9874 90.0972C100.319 90.1985 100.613 90.3511 100.861 90.551C101.405 90.9905 101.657 91.5761 101.613 92.3157L101.597 92.607C101.56 93.2248 101.344 93.7901 100.951 94.2989C100.761 94.5363 100.533 94.7515 100.276 94.9481C100.022 95.1409 99.7223 95.3111 99.38 95.4655C98.8618 95.684 98.2853 95.8457 97.6577 95.9457C97.0283 96.0456 96.3623 96.0727 95.663 96.0324L95.663 96.0325ZM91.832 97.6647L91.7098 99.1271C91.7098 99.4381 91.279 99.6906 90.4271 99.886L89.4638 100.041L88.5912 100.115C87.3217 100.105 86.351 99.748 85.684 99.0402C85.0161 98.334 84.6843 97.4213 84.691 96.3014L84.6953 95.7642C84.6979 95.5273 84.7027 95.3126 84.718 95.1222C84.7305 94.9323 84.7597 94.7431 84.7999 94.5608C84.8566 94.2143 84.9682 93.8191 85.1313 93.374C85.3745 92.7215 85.7336 92.0777 86.2044 91.445C87.1926 90.1242 88.5063 89.4691 90.1554 89.4809C90.6593 89.4842 91.1897 89.5577 91.7351 89.7012C92.2876 89.8458 92.5598 90.0397 92.5586 90.2838L92.5579 90.5159C92.5572 90.6297 92.5433 90.7325 92.5191 90.8291L92.4236 91.7634C92.4236 91.9095 92.3443 91.9816 92.1827 91.9797C92.0448 91.979 91.8023 91.8882 91.4629 91.7088C91.117 91.5332 90.7837 91.4417 90.4648 91.4392C89.5823 91.434 88.8593 91.8674 88.2857 92.7388C87.9247 93.3243 87.6698 94.2004 87.5188 95.3675C87.5148 95.7532 87.5412 96.0859 87.5898 96.3684C87.6424 96.6472 87.7368 96.9013 87.871 97.1274C88.1778 97.7371 88.6424 98.0452 89.2667 98.0485L89.7472 98.0336C89.843 98.0226 89.9411 98.0046 90.0383 97.983C90.1382 97.9607 90.259 97.9197 90.4019 97.8611L91.6516 97.441C91.7167 97.4417 91.777 97.516 91.832 97.6647V97.6647ZM81.0325 87.7432C81.0138 87.1771 81.0468 86.8097 81.1258 86.6439C81.2483 86.3475 81.5464 86.1923 82.0156 86.1784L83.2715 86.1444C83.5652 86.1363 83.7788 86.185 83.9221 86.2915C84.0667 86.3969 84.1383 86.567 84.1486 86.809L84.1189 87.6569C84.0893 87.9072 83.9803 88.1027 83.7861 88.2469C83.6918 88.2966 83.5846 88.3372 83.4599 88.3676C83.3351 88.3983 83.1958 88.4152 83.04 88.4189L81.8693 88.4493C81.3266 88.4668 81.046 88.2307 81.0324 87.7432L81.0325 87.7432ZM80.5091 99.7019L81.0965 90.1502C81.0928 89.9306 81.2113 89.8183 81.4542 89.8109L83.4467 89.755C83.6676 89.7498 83.7773 89.8563 83.7839 90.0751L83.1932 99.6268C83.2009 99.8702 83.0711 99.9957 82.802 100.004L80.8232 100.059C80.6211 100.065 80.5158 99.9453 80.5091 99.7019H80.5091ZM76.5496 95.9984C76.3935 96.615 76.2048 97.1826 75.9824 97.6942C75.7608 98.2066 75.4985 98.6746 75.1873 99.0962C74.4166 100.179 73.4888 100.753 72.4011 100.822C71.8525 100.857 71.4103 100.714 71.0684 100.395C70.7271 100.079 70.5358 99.6287 70.4997 99.0534L70.5136 98.6853L70.7338 90.8265C70.7176 90.5824 70.8391 90.454 71.0951 90.4375L73.134 90.3094C73.3539 90.2944 73.4691 90.41 73.4859 90.6527L73.3121 96.8368L73.295 97.0084L73.3637 97.6218C73.3671 97.7092 73.4708 97.7488 73.6717 97.7363C73.8981 97.7224 74.1928 97.5171 74.5553 97.1248C74.7163 96.9257 74.8812 96.6797 75.0483 96.3881C75.2184 96.096 75.4086 95.7426 75.6141 95.3232C76.0844 94.3687 76.4 93.5599 76.5577 92.8931C76.6378 92.5656 76.6882 92.2058 76.7179 91.8088C76.7442 91.412 76.7449 90.9916 76.7164 90.5378C76.697 90.2358 76.8196 90.0767 77.0796 90.0602L79.0319 89.9373C79.2509 89.9233 79.3687 90.0386 79.3826 90.283L79.1164 99.8268C79.1307 100.071 79.006 100.201 78.7383 100.218L76.7896 100.341C76.58 100.354 76.4689 100.238 76.452 99.9957L76.5496 95.9984V95.9984ZM65.0837 88.7042C65.0373 88.1393 65.0516 87.7718 65.1193 87.6001C65.2268 87.299 65.5223 87.1273 66.0018 87.0878L67.3105 86.9835C67.611 86.9598 67.818 86.9919 67.9255 87.0775C68.0503 87.1438 68.1238 87.3088 68.1465 87.5723L68.1615 88.4562C68.1432 88.6838 68.0682 88.8836 67.9325 89.0556C67.7972 89.1672 67.5862 89.2367 67.294 89.2599L65.9993 89.3645C65.8943 89.3722 65.7937 89.3653 65.6851 89.3433C65.5794 89.325 65.4758 89.2901 65.3673 89.2441C65.2015 89.1442 65.1043 88.9648 65.0838 88.7042H65.0837ZM68.0306 90.9224L67.9102 101.927C67.9508 102.43 67.8927 102.891 67.738 103.31C67.5793 103.728 67.3298 104.098 66.9919 104.416C66.3833 105.015 65.5366 105.357 64.4529 105.446C64.0246 105.48 63.5901 105.478 63.1446 105.444C62.4966 105.389 62.1616 105.221 62.1382 104.941L62.1476 104.187L62.1528 103.56C62.1407 103.405 62.2227 103.295 62.404 103.227L62.697 103.222L63.029 103.331C63.299 103.417 63.4914 103.453 63.6095 103.443C64.074 103.406 64.4376 103.218 64.7042 102.875C64.9671 102.535 65.1145 102.084 65.139 101.519L65.2472 91.1468C65.2254 90.892 65.3431 90.7525 65.5977 90.7331L67.6535 90.5666C67.8839 90.548 68.0093 90.6677 68.0306 90.9224H68.0306Z" fill="#FFF500"/>
<path fill-rule="evenodd" clip-rule="evenodd" d="M91.5885 9.75785H91.5706C91.1956 9.75857 90.8381 9.78233 90.4953 9.82995C92.6484 14.6134 91.9978 20.3496 89.664 25.8629C88.9288 27.5953 87.9164 29.1511 86.6807 30.4974L86.8576 30.6988C88.8162 32.8983 91.1079 34.2596 93.9752 34.6219C102.963 35.756 110.479 27.5493 109.392 19.8284C105.17 19.2034 100.514 15.9957 99.7839 10.9999C98.7539 11.035 97.8327 11.1163 97.0252 10.8088C94.8157 10.1157 93.0657 9.75781 91.5884 9.75781L91.5885 9.75785Z" fill="url(#paint1_radial)"/>
<path d="M87.189 29.9178C88.1951 28.7108 89.0316 27.3531 89.665 25.8633C91.927 20.5158 92.6088 14.9549 90.6799 10.2614C90.817 10.0723 91.069 10.1389 91.4001 10.6798C91.9856 11.6447 92.3857 12.7094 92.6519 13.8226C93.5765 17.6883 93.0682 20.982 92.2511 24.7947C91.2977 29.2627 90.7169 32.9495 97.5671 33.1174L91.1693 32.9919L87.189 29.9178L87.189 29.9178Z" fill="#99CAB1"/>
<path d="M93.9754 34.6216C91.108 34.2593 88.8163 32.8983 86.8575 30.6984L86.6812 30.4979C87.1018 30.0394 87.4968 29.5559 87.8643 29.0498L87.9097 29.1007C89.8671 31.2994 92.1588 32.6597 95.0268 33.0227C100.262 33.684 104.997 31.1731 107.823 27.4355C105.233 32.0247 99.9274 35.3733 93.9754 34.6216V34.6216Z" fill="#99CAB1"/>
<path d="M106.127 7.54912L106.089 7.53408C104.673 6.92327 103.185 6.90138 101.593 7.08614C101.241 7.10523 100.446 7.46561 100.537 7.50514C100.339 8.98217 100.384 10.5113 100.877 11.9433C101.595 13.9751 103.162 15.3913 105.008 16.4007C105.094 16.4604 105.205 16.509 105.315 16.5573C107.008 17.3694 110.136 18.0025 112.413 17.817C112.779 17.7643 113.142 17.7335 113.444 17.6534C112.816 17.3009 112.348 16.7019 111.989 16.0962C111.571 15.4375 111.244 14.6364 110.889 13.8239C110.173 12.1083 109.477 10.2718 108.378 9.13704C108.334 9.11868 108.301 9.07334 108.265 9.03268C107.567 8.34614 106.856 7.86935 106.127 7.54911V7.54912Z" fill="#007A3D"/>
<path d="M98.9427 7.03781C98.9417 6.40511 97.538 6.32751 97.2626 6.70149C97.3369 7.07557 98.2921 7.05544 98.4941 7.02318C98.3481 7.19777 97.459 7.20732 97.2016 6.99797C97.4177 8.31835 97.5109 9.15387 97.1109 10.359C96.9948 10.6972 97.8112 10.9599 97.9729 10.5906C98.4 9.62411 98.8587 8.7026 98.9427 7.0378V7.03781Z" fill="#E15616"/>
<path fill-rule="evenodd" clip-rule="evenodd" d="M107.298 21.2463C108.228 23.6821 105.824 27.6159 103.93 28.4682C104.974 26.499 104.936 24.5879 104.482 22.3698C103.817 19.1247 106.515 19.1918 107.298 21.2463L107.298 21.2463Z" fill="white"/>
<path fill-rule="evenodd" clip-rule="evenodd" d="M93.7153 10.3647C94.4197 10.8664 94.8425 11.3081 95.2755 11.5932C96.6266 12.4544 97.8847 12.443 99.54 11.3938C97.4257 12.1693 96.7872 11.516 95.702 10.9773C94.8345 10.5711 94.581 10.446 93.7153 10.3648V10.3647Z" fill="white"/>
<path fill-rule="evenodd" clip-rule="evenodd" d="M68.9071 6.6482C68.6504 6.67714 68.3988 6.71044 68.1494 6.74706C67.7383 7.49543 67.2511 8.20324 66.6791 8.85316C64.5933 11.2187 61.7515 12.1176 58.7039 12.6051C58.3363 12.6633 58.364 12.661 58.2544 12.6588C58.2082 12.6578 58.138 12.6566 58.0038 12.6599L57.7723 12.6643C55.5384 16.2255 55.5493 20.9974 58.2646 26.0686C62.234 33.4838 72.0273 37.8446 80.3547 33.7711C85.9073 31.056 88.6405 25.2693 88.7739 19.3506C88.9093 13.2653 86.2789 7.05125 79.6997 4.8913C78.4843 4.48547 77.4244 4.32478 76.4808 4.3252C72.981 4.3252 71.0939 6.53669 68.9071 6.64832L68.9071 6.6482Z" fill="url(#paint2_radial)"/>
<path d="M80.3561 33.7703C72.4722 37.6261 63.2784 33.9254 58.9521 27.2309C63.7115 32.4122 71.6486 34.8562 78.5717 31.4687C84.1228 28.7537 86.8557 22.9673 86.9906 17.0485C87.0623 13.8647 86.3743 10.6456 84.761 7.99121C87.6559 10.9358 88.8672 15.173 88.7743 19.3504C88.6415 25.2688 85.9077 31.0562 80.3562 33.7703L80.3561 33.7703Z" fill="#EB891B"/>
<path fill-rule="evenodd" clip-rule="evenodd" d="M64.0439 14.9177C65.3441 12.8204 64.3829 11.9486 63.1424 12.0935C62.8889 12.1222 62.6505 12.1836 62.4262 12.2718C59.6624 13.3528 59.5212 17.5589 60.3767 19.9641C60.749 21.0133 61.3612 21.9765 62.2565 22.7761C61.6151 20.0365 62.2869 17.7522 64.0439 14.9177L64.0439 14.9177Z" fill="white"/>
<path d="M68.5779 2.25497C65.9219 2.16234 61.7206 2.75115 58.5099 5.61599C61.995 3.59143 66.5221 2.91921 69.1075 3.04473C68.5457 4.91337 67.6618 6.70545 66.2968 8.13268C61.9848 12.561 52.6087 11.5827 48.1416 7.84833C49.9823 7.49811 51.9943 6.01631 53.2765 4.73068C57.7352 0.258929 61.9445 -1.9756 68.5779 2.25496V2.25497Z" fill="#007A3D"/>
<path fill-rule="evenodd" clip-rule="evenodd" d="M67.0522 8.70636C68.0884 8.7879 68.8082 8.98697 69.4325 9.01259C71.3595 9.05761 72.6121 8.22543 73.5671 6.01611C71.9677 8.23062 70.8925 7.94399 69.4493 8.06993C68.3093 8.19877 67.9713 8.23062 67.0522 8.70636V8.70636Z" fill="#E15616"/>
<path d="M69.7011 1.10933C69.9103 0.207951 71.9342 0.782558 72.2056 1.45188C71.9759 1.94671 70.6238 1.45229 70.3451 1.30841C70.4932 1.62865 71.7554 2.07514 72.1958 1.90314C71.4463 3.67624 70.8483 5.86584 71.0473 8.18865C71.0751 8.72291 69.7716 8.70133 69.7406 8.09788C69.4234 5.4871 69.2673 3.52074 69.7011 1.10934V1.10933Z" fill="#E15616"/>
<path d="M79.6576 10.3129C85.7039 13.3359 84.1946 31.0061 69.5091 32.8645C67.1027 33.1689 74.9243 35.7856 77.9464 34.6296C86.7752 31.2546 89.7278 16.1874 80.6436 9.91251C79.6499 9.22556 78.9185 9.94218 79.6576 10.3128L79.6576 10.3129Z" fill="#EB891B"/>
<path d="M58.1178 32.4402C58.0667 32.1386 58.0225 31.8356 57.9734 31.5376C56.6165 23.4272 53.3326 20.0594 47.862 18.3003C43.6655 16.9507 39.5612 16.9067 35.3716 16.0563C33.3085 15.6372 31.2429 14.943 29.9551 13.624C29.9522 14.3081 30.081 15.0484 30.2079 15.8333C32.8942 29.4056 43.9182 40.0087 57.7149 33.8429C55.15 30.6594 49.6025 25.9197 43.4992 23.7862C50.353 24.7318 55.44 29.1776 58.1179 32.4402L58.1178 32.4402Z" fill="#68B92E"/>
<path fill-rule="evenodd" clip-rule="evenodd" d="M57.715 33.8432C55.1497 30.6597 49.6025 25.9201 43.4992 23.7861C50.353 24.7318 55.4401 29.1779 58.1181 32.4405C58.0669 32.1389 58.0226 31.8359 57.974 31.5381C53.9994 13.7459 41.8226 21.2218 33.1865 16.2666C35.4957 27.3283 45.0522 36.267 57.715 33.8432L57.715 33.8432Z" fill="url(#paint3_linear)"/>
<path fill-rule="evenodd" clip-rule="evenodd" d="M31.7554 15.6157C42.4623 18.8648 52.981 17.2242 56.105 27.0207C51.0139 18.8483 39.8711 19.4174 31.7554 15.6157Z" fill="white"/>
<path d="M30.208 15.8335C32.8943 29.4052 43.9184 40.0089 57.7151 33.843C45.4161 37.8921 34.1353 27.6487 30.208 15.8335Z" fill="#4CA277"/>
<path d="M135.451 19.2852C130.466 19.5267 126.378 17.4477 120.36 18.4335C116.144 19.1231 112.357 21.4747 109.972 26.9419C109.628 27.7306 109.369 28.5207 109.063 29.3178C111.94 26.3988 117.723 22.8727 124.211 23.6709C118.129 24.1997 112.213 27.731 109.052 30.7799C120.814 40.8303 136.429 31.6018 139.18 18.285C138.14 18.9452 136.825 19.2185 135.451 19.2852L135.451 19.2852Z" fill="#68B92E"/>
<path d="M109.052 30.7794C120.814 40.83 136.429 31.6014 139.18 18.2847C136.281 29.5949 120.626 38.2811 109.052 30.7794Z" fill="#4CA277"/>
<path fill-rule="evenodd" clip-rule="evenodd" d="M134.411 19.8376C125.261 19.2064 117.436 15.4154 110.535 26.4767C117.608 16.2694 127.117 21.2166 134.411 19.8376Z" fill="white"/>
<path d="M25.2064 35.0714C22.3694 32.5407 19.6461 29.0974 15.0386 29.2174C19.9365 31.8773 21.3326 35.8267 25.6841 37.6196C27.7443 38.4686 31.744 38.5253 34.6995 36.7673C31.6508 38.5236 27.93 37.4996 25.2064 35.0714L25.2064 35.0714Z" fill="#66AF8B"/>
<path d="M35.6304 36.132C35.8312 35.9718 36.0239 35.8005 36.2075 35.6172C36.0199 35.8042 35.8257 35.9732 35.6304 36.132Z" fill="#66AF8B"/>
<path d="M35.0103 36.5835C35.0249 36.5738 35.0394 36.5619 35.054 36.5522C35.0394 36.5612 35.0249 36.5741 35.0103 36.5835Z" fill="#66AF8B"/>
<path d="M24.5398 23.9402C23.4627 22.8602 22.4521 21.4168 20.604 21.3594C22.504 22.5377 22.9715 24.1532 24.6729 24.9711C25.4775 25.3587 27.071 25.4677 28.2944 24.8346C27.0337 25.4625 25.5722 24.9736 24.5398 23.9402V23.9402Z" fill="#7FBC9E"/>
<path d="M120.98 14.8447C122.432 13.0247 123.72 10.6664 126.515 10.2661C123.832 12.3751 123.395 14.9039 120.952 16.4326C119.797 17.1558 117.397 17.5891 115.44 16.8363C117.454 17.5762 119.586 16.587 120.98 14.8447L120.98 14.8447Z" fill="#7FBC9E"/>
<path fill-rule="evenodd" clip-rule="evenodd" d="M132.25 34.8004C132.513 35.0679 132.803 35.3 133.114 35.5053C133.182 35.551 133.256 35.581 133.329 35.6246C135.412 36.885 138.237 36.8788 139.703 36.291C142.797 35.0467 143.812 32.2511 147.304 30.3945C144.98 29.2684 142.578 28.7111 140.391 28.7114C136.187 28.7114 132.777 30.7696 132.25 34.8004L132.25 34.8004Z" fill="url(#paint4_linear)"/>
<path d="M140.056 34.4845C142.086 32.7067 144.038 30.2796 147.304 30.3946C143.812 32.2507 142.797 35.0467 139.703 36.2909C138.238 36.8787 135.412 36.885 133.329 35.6245C135.479 36.8795 138.111 36.1874 140.056 34.4845L140.056 34.4845Z" fill="#7FBC9E"/>
<path d="M136.782 68.2067C130.531 68.7794 125.786 72.4676 121.704 77.3518C123.724 75.5762 125.878 74.1796 128.384 73.4447C131.234 72.6396 134.29 72.7845 137.203 72.8361C132.911 73.5032 128.476 74.6477 124.588 76.864C122.629 78.0054 120.993 79.3621 119.268 80.8789C123.18 78.6919 126.787 78.4157 131.081 78.6715C134.567 78.8735 137.888 79.2683 141.371 78.5818C147.737 77.3759 153.144 73.6427 156.812 67.8081C151.199 71.1183 144.481 68.0237 138.42 68.1144C137.879 68.1233 137.334 68.154 136.782 68.2067L136.782 68.2067Z" stroke="#0C1C8C" stroke-width="0.345235" stroke-linecap="round" stroke-linejoin="round"/>
<defs>
<linearGradient id="paint0_linear" x1="48.3975" y1="80.6792" x2="48.3975" y2="48.768" gradientUnits="userSpaceOnUse">
<stop stop-color="#FAFAFD"/>
<stop offset="1" stop-color="#5560AE"/>
</linearGradient>
<radialGradient id="paint1_radial" cx="0" cy="0" r="1" gradientUnits="userSpaceOnUse" gradientTransform="translate(102.625 20.9371) scale(7.27496 7.27953)">
<stop stop-color="#91C81F"/>
<stop offset="1" stop-color="#00A539"/>
</radialGradient>
<radialGradient id="paint2_radial" cx="0" cy="0" r="1" gradientUnits="userSpaceOnUse" gradientTransform="translate(68.8868 18.0679) scale(7.70479 7.70963)">
<stop stop-color="#FFF000"/>
<stop offset="1" stop-color="#F3AE00"/>
</radialGradient>
<linearGradient id="paint3_linear" x1="46.8415" y1="13.8056" x2="44.4601" y2="36.207" gradientUnits="userSpaceOnUse">
<stop stop-color="#68B92E"/>
<stop offset="1" stop-color="#00A13A"/>
</linearGradient>
<linearGradient id="paint4_linear" x1="139.009" y1="28.3945" x2="140.548" y2="37.2013" gradientUnits="userSpaceOnUse">
<stop stop-color="#BBD900"/>
<stop offset="1" stop-color="#00A13A"/>
</linearGradient>
</defs>
</svg>
